<?xml version="1.0" standalone="no"?>
<!DOCTYPE svg PUBLIC "-//W3C//DTD SVG 20010904//EN"
 "http://www.w3.org/TR/2001/REC-SVG-20010904/DTD/svg10.dtd">
<svg version="1.0" xmlns="http://www.w3.org/2000/svg"
 width="1200.000000pt" height="1200.000000pt" viewBox="0 0 1200.000000 1200.000000"
 preserveAspectRatio="xMidYMid meet">
<metadata>
Created by potrace 1.14, written by Peter Selinger 2001-2017
</metadata>
<g transform="translate(0.000000,1200.000000) scale(0.100000,-0.100000)"
fill="#000000" stroke="none">
<path d="M5906 10533 c-48 -14 -88 -35 -114 -60 -7 -7 -23 -13 -35 -14 -12 -1
-33 -2 -47 -4 -14 -1 -57 -5 -96 -9 -164 -15 -174 -18 -177 -54 -1 -18 -11
-23 -57 -32 -970 -192 -1777 -753 -2272 -1580 -148 -247 -283 -565 -358 -840
-24 -88 -34 -132 -56 -235 -1 -5 -5 -28 -8 -50 -4 -22 -11 -65 -16 -95 -28
-168 -35 -267 -34 -510 0 -191 7 -338 18 -397 3 -11 7 -44 11 -74 4 -30 11
-76 17 -104 5 -27 11 -61 14 -75 54 -297 195 -680 364 -986 188 -340 476 -688
770 -930 116 -96 247 -194 259 -194 5 0 11 -4 13 -8 10 -25 363 -224 518 -292
30 -13 56 -25 58 -26 3 -1 -14 -43 -71 -174 -8 -19 -86 -201 -172 -405 -87
-203 -166 -389 -176 -412 -10 -23 -66 -153 -124 -288 -102 -240 -105 -249
-104 -318 1 -40 1 -123 0 -184 l-1 -113 -35 0 -35 0 -1 -197 c-1 -109 -1 -208
-1 -221 1 -15 -3 -20 -11 -15 -7 4 -7 0 2 -10 7 -9 11 -23 8 -31 -3 -8 1 -17
8 -20 8 -3 13 -11 11 -18 -1 -7 -1 -9 2 -5 2 4 10 3 17 -3 9 -8 14 -6 19 5 3
8 10 15 16 15 8 0 7 -7 0 -22 -11 -22 -10 -22 4 -4 9 11 16 24 16 29 0 4 6 5
13 0 21 -13 49 -14 41 -1 -5 7 -3 8 5 3 18 -10 102 -14 95 -4 -3 5 2 6 10 3 9
-3 16 -10 16 -16 0 -5 -4 -7 -8 -4 -4 2 -14 0 -22 -6 -12 -8 -12 -9 2 -5 9 3
19 1 22 -6 3 -9 5 -8 5 1 1 7 6 10 13 6 7 -5 9 -2 6 7 -4 10 1 15 13 16 10 1
19 -3 19 -8 0 -6 -5 -7 -12 -3 -7 5 -8 3 -4 -5 5 -7 11 -10 14 -7 3 3 11 1 18
-5 8 -6 20 -9 28 -6 9 4 17 -1 19 -11 4 -16 5 -15 6 1 1 20 18 23 24 5 2 -7 2
-1 0 14 -2 14 1 29 6 33 7 4 8 0 4 -11 -5 -14 -3 -15 17 -4 18 9 21 9 15 0 -5
-8 -3 -11 6 -8 8 3 13 10 12 15 -1 5 4 10 11 10 8 0 13 -7 11 -16 -1 -9 -8
-16 -15 -16 -7 0 -17 -10 -21 -23 -6 -15 -5 -21 1 -17 6 3 10 14 10 23 1 15 3
14 17 -3 13 -16 15 -17 10 -2 -5 14 -2 16 19 13 29 -6 56 2 49 14 -3 5 0 12 6
16 8 4 9 3 5 -4 -4 -7 -2 -12 3 -12 6 0 11 5 11 10 0 6 5 10 10 10 19 0 9 -15
-21 -33 -18 -10 -28 -21 -24 -25 4 -4 10 -1 12 6 3 6 9 10 14 6 5 -3 9 1 9 8
1 8 7 5 17 -7 14 -18 15 -18 9 -2 -4 13 -2 17 6 14 7 -2 13 -11 13 -20 0 -8 3
-18 6 -21 3 -3 5 8 5 24 0 18 -5 30 -13 30 -7 0 -13 4 -13 8 0 4 9 8 19 8 13
0 18 -6 16 -18 -5 -23 7 -29 23 -12 7 8 8 14 2 14 -5 0 -10 4 -10 8 0 5 7 9
15 9 8 0 13 -3 10 -5 -3 -3 1 -12 8 -20 8 -11 8 -14 0 -9 -18 11 -25 -9 -7
-24 12 -10 15 -10 12 2 -2 7 6 15 18 17 16 2 21 9 18 25 -4 20 -4 20 6 -2 l10
-24 27 24 c14 13 24 19 20 14 -10 -19 27 -34 46 -20 9 6 15 14 12 16 -2 3 5 5
16 5 19 0 19 -1 3 -13 -10 -7 -21 -13 -26 -13 -4 0 -5 -7 -1 -16 3 -9 9 -12
12 -7 10 14 45 39 38 27 -4 -7 0 -15 9 -18 9 -3 12 -11 8 -18 -6 -10 -4 -10 7
-2 8 6 21 10 29 8 8 -2 22 -5 30 -6 8 -2 22 -8 30 -13 13 -8 13 -7 1 8 -8 10
-9 17 -3 17 6 0 14 -5 17 -10 5 -8 11 -7 21 1 13 10 18 6 15 -13 -2 -14 8 -8
18 10 8 15 5 18 -26 17 -24 0 -38 5 -40 15 -3 9 -1 11 4 5 9 -12 66 -18 59 -7
-2 4 7 8 22 9 17 1 21 -1 12 -5 -18 -9 -22 -52 -4 -45 7 2 10 11 7 19 -3 8 -1
14 5 14 5 0 13 -7 16 -16 4 -9 9 -14 13 -11 3 4 13 1 21 -6 10 -8 13 -8 9 -1
-4 7 0 14 8 18 8 3 17 1 20 -5 4 -5 12 -6 18 -2 7 4 20 6 30 5 9 -2 17 1 17 7
0 6 -8 8 -17 5 -17 -5 -17 -5 -1 6 9 6 15 17 12 25 -4 8 -1 15 4 15 6 0 9 -8
7 -18 -1 -10 3 -28 9 -41 11 -21 14 -21 20 -6 5 14 9 15 21 5 8 -7 15 -9 15
-4 0 4 5 3 12 -4 7 -7 17 -12 23 -12 5 0 4 4 -3 9 -11 7 -11 11 2 23 8 9 12
18 9 22 -4 3 -1 6 5 6 15 0 15 -13 0 -28 -9 -9 -9 -12 1 -12 7 0 9 -5 5 -12
-4 -7 -3 -8 5 -4 6 4 9 11 6 16 -3 4 2 13 10 20 8 7 12 17 8 24 -3 6 -2 8 2 3
5 -4 10 -18 12 -30 2 -16 0 -18 -6 -8 -6 9 -11 10 -15 2 -4 -6 -2 -11 4 -11 6
0 8 -6 4 -12 -6 -10 -4 -10 7 -1 14 14 33 18 26 6 -3 -5 7 -9 21 -9 15 -1 21
1 14 3 -6 3 -10 9 -7 14 4 5 0 6 -8 3 -8 -3 -18 -1 -21 4 -3 5 6 8 20 6 19 -2
24 1 20 12 -3 9 -2 12 5 9 6 -4 8 -13 5 -21 -3 -8 -1 -14 5 -14 6 0 7 -5 3
-12 -4 -7 -3 -8 5 -4 6 4 9 11 6 16 -3 5 7 5 24 0 24 -7 31 -5 40 14 11 21 11
21 8 -3 -1 -13 4 -26 12 -29 10 -3 11 2 6 18 -6 20 -5 21 8 9 8 -8 13 -18 10
-24 -2 -5 5 1 16 14 12 12 18 28 14 35 -3 6 -2 8 2 3 11 -10 14 -48 3 -41 -4
3 -8 0 -8 -6 0 -18 23 -6 26 14 3 21 14 35 14 17 0 -7 4 -10 9 -6 5 3 13 0 17
-6 5 -8 12 -5 23 10 16 21 17 21 17 2 0 -11 -4 -18 -7 -15 -14 8 -21 -18 -10
-29 9 -9 11 -8 6 4 -4 10 0 16 10 16 8 0 15 -4 15 -9 0 -4 5 -8 10 -8 7 0 7 6
0 19 -15 29 -12 33 8 14 11 -10 17 -22 14 -27 -3 -5 0 -6 6 -2 21 13 54 16 72
6 11 -6 21 -5 28 2 9 9 12 9 12 -2 0 -11 3 -11 12 -2 18 18 65 15 78 -5 9 -15
11 -15 7 -2 -4 13 1 16 24 15 16 0 29 -5 29 -11 0 -5 5 -3 10 5 7 11 10 11 10
2 0 -7 5 -10 10 -7 6 3 10 0 10 -7 0 -8 5 -6 11 5 6 10 15 14 22 10 18 -11 38
-13 31 -2 -5 8 3 11 22 8 4 0 11 5 16 13 8 10 9 10 5 -2 -2 -8 -10 -14 -16
-12 -6 1 -11 -2 -11 -8 0 -14 13 -13 28 2 9 9 12 9 12 1 0 -7 12 -10 28 -9 15
2 33 -1 40 -7 10 -8 12 -7 10 2 -4 19 32 22 39 4 4 -11 8 -12 14 -2 4 7 17 14
29 16 12 2 19 -1 16 -6 -7 -10 13 -9 30 2 15 9 26 -3 16 -18 -4 -6 0 -3 9 6
13 15 31 17 98 15 44 -2 81 1 81 5 0 4 -16 6 -35 5 -30 -3 -34 -2 -24 10 7 8
16 11 23 6 6 -4 21 -7 34 -6 14 1 21 -3 18 -11 -3 -8 8 -11 37 -8 23 2 52 3
64 3 12 0 25 5 29 12 4 6 3 9 -2 5 -5 -3 -20 1 -34 10 -17 9 -18 12 -5 8 11
-4 27 -8 35 -10 8 -1 14 -10 14 -19 -1 -10 1 -15 4 -12 3 3 11 1 19 -5 10 -9
13 -8 13 1 0 9 4 9 18 -1 15 -13 16 -12 4 3 -8 9 -19 15 -26 12 -14 -5 -19 33
-5 41 5 3 6 -1 3 -9 -3 -9 -1 -16 5 -16 23 0 26 -2 38 -23 7 -12 12 -17 13
-10 0 6 9 10 20 8 18 -3 19 -1 9 17 -11 21 -12 21 -25 3 -12 -16 -14 -16 -14
-3 0 18 26 32 35 18 7 -11 45 -9 45 2 0 4 5 8 12 8 9 0 9 -3 0 -12 -17 -17
-15 -25 9 -31 17 -4 18 -3 8 9 -10 12 -9 13 7 7 16 -6 17 -4 7 8 -10 12 -8 15
10 16 12 1 17 -1 12 -5 -12 -8 -15 -53 -3 -46 4 3 8 12 8 20 0 8 5 14 11 14 5
0 7 6 3 12 -5 9 -2 9 9 -1 14 -11 20 -11 34 0 14 12 16 12 8 0 -6 -11 -4 -13
8 -8 9 3 19 2 22 -3 3 -4 -6 -7 -20 -5 -14 1 -28 -1 -30 -5 -3 -4 11 -7 30 -5
19 1 35 -1 35 -5 0 -4 10 -10 23 -13 20 -6 21 -5 4 8 -12 8 -14 15 -8 20 6 3
18 -1 27 -9 17 -18 28 -21 19 -6 -9 14 9 12 24 -2 7 -7 12 -8 11 -3 -5 22 1
29 11 15 8 -12 10 -12 7 -1 -2 8 -12 15 -21 17 -10 1 -14 -2 -11 -8 4 -7 2 -8
-4 -4 -12 7 -5 36 8 36 5 0 18 -12 29 -26 13 -16 21 -21 21 -12 0 8 -5 19 -11
25 -8 8 -7 13 2 18 7 5 10 4 5 -3 -8 -13 33 -44 47 -35 6 4 8 0 4 -10 -3 -9
-1 -19 5 -23 7 -5 8 -2 3 6 -6 10 -4 12 8 7 9 -3 16 -3 16 1 -3 19 2 23 16 12
8 -7 15 -9 15 -5 0 4 7 1 17 -6 15 -13 15 -12 2 9 -8 12 -20 20 -27 17 -7 -3
-10 0 -7 5 10 16 29 11 43 -10 7 -12 17 -18 22 -15 6 4 8 10 5 15 -8 13 27 22
39 10 8 -8 6 -9 -8 -4 -18 7 -18 6 0 -14 22 -26 25 -27 17 -5 -5 12 -3 14 8 8
9 -6 7 1 -5 20 -18 28 -18 29 -1 15 17 -14 18 -13 12 5 -7 19 -6 19 7 2 9 -11
16 -14 19 -7 3 6 4 5 2 -2 -1 -7 -9 -12 -16 -10 -8 1 -5 -4 5 -13 23 -18 36
-19 36 -4 0 5 -6 7 -12 4 -7 -4 -4 1 7 10 11 9 19 22 17 28 -2 6 5 4 16 -6 10
-9 22 -14 26 -10 11 11 66 11 66 0 0 -5 -7 -7 -14 -4 -10 4 -13 1 -9 -9 4 -10
9 -12 16 -5 7 7 16 7 29 0 16 -8 19 -7 16 7 -2 9 3 19 10 21 6 3 12 0 12 -7 0
-6 -5 -8 -12 -4 -7 4 -8 3 -4 -5 4 -6 11 -9 16 -6 4 3 11 -1 14 -7 3 -7 4 -4
3 8 -1 11 3 20 8 20 6 -1 9 -4 7 -8 -3 -12 16 -10 23 2 4 6 11 8 16 5 5 -4 9
0 9 7 0 8 3 9 8 3 10 -14 46 -19 37 -6 -4 7 0 8 10 5 11 -5 13 -10 5 -19 -8
-10 -8 -15 1 -21 7 -4 10 -3 7 2 -3 5 1 16 10 23 14 13 15 13 10 -5 -3 -12 0
-21 7 -21 7 0 10 10 7 25 -3 17 -1 23 7 18 6 -4 8 -13 4 -19 -4 -7 0 -6 10 2
9 7 17 9 17 3 0 -15 25 -21 41 -10 11 8 11 9 -3 5 -9 -3 -18 0 -21 6 -3 8 11
12 47 12 45 0 51 2 48 19 -2 11 4 26 15 34 16 13 16 14 1 9 -20 -7 -25 9 -5
16 10 4 10 6 0 6 -10 1 -13 49 -13 206 l0 205 -35 0 -35 0 -1 128 c0 70 0 154
-1 187 0 50 -9 80 -50 175 -28 63 -56 129 -63 145 -7 17 -22 50 -33 75 -52
117 -353 815 -418 970 -41 96 -79 183 -85 193 -6 11 -9 20 -7 22 2 2 53 27
113 56 154 73 290 150 429 242 65 43 124 83 130 88 247 195 456 392 581 549
33 41 66 81 73 88 29 31 159 221 223 327 229 377 406 872 454 1270 4 28 8 60
10 73 13 81 20 225 19 412 0 241 -7 335 -40 530 -18 108 -52 260 -83 370 -12
41 -23 82 -25 90 -3 8 -16 49 -31 90 -128 358 -296 670 -519 960 -107 140
-126 161 -295 330 -204 203 -396 353 -656 510 -82 50 -364 188 -450 220 -33
12 -69 26 -80 31 -94 41 -417 133 -538 153 -48 8 -66 17 -62 29 3 7 1 18 -3
25 -11 16 -136 36 -292 47 -42 3 -69 11 -101 33 -83 55 -176 71 -263 45z
m-1896 -8963 c0 -5 -4 -10 -10 -10 -5 0 -10 5 -10 10 0 6 5 10 10 10 6 0 10
-4 10 -10z m311 1 c11 5 19 6 18 2 -3 -20 2 -27 12 -13 8 12 10 12 7 1 -8 -29
-69 -22 -67 8 0 10 2 11 6 4 3 -9 10 -10 24 -2z m187 -13 c-5 -15 -35 -19 -35
-4 0 7 9 13 19 13 11 1 18 -3 16 -9z m179 -3 c0 -8 -4 -12 -9 -9 -4 3 -8 9 -8
15 0 5 4 9 8 9 5 0 9 -7 9 -15z m123 9 c0 -8 -19 -13 -24 -6 -3 5 1 9 9 9 8 0
15 -2 15 -3z m105 -3 c3 -5 0 -13 -6 -17 -7 -4 -9 -3 -5 4 3 5 0 13 -6 15 -9
4 -10 6 -1 6 6 1 14 -3 18 -8z m193 -16 c-3 -3 -9 2 -12 12 -6 14 -5 15 5 6 7
-7 10 -15 7 -18z m391 11 c9 -11 9 -16 0 -22 -7 -4 -9 -3 -5 4 3 6 -2 15 -11
21 -10 6 -13 11 -7 11 6 0 17 -6 23 -14z m665 6 c3 -5 -1 -9 -9 -9 -8 0 -12 4
-9 9 3 4 7 8 9 8 2 0 6 -4 9 -8z m202 -17 c1 -8 -2 -15 -6 -15 -5 0 -8 9 -7
20 1 21 10 18 13 -5z m244 21 c0 -3 -4 -8 -10 -11 -5 -3 -10 -1 -10 4 0 6 5
11 10 11 6 0 10 -2 10 -4z m217 -18 c-3 -8 -6 -5 -6 6 -1 11 2 17 5 13 3 -3 4
-12 1 -19z m218 12 c3 -5 1 -10 -4 -10 -6 0 -11 5 -11 10 0 6 2 10 4 10 3 0 8
-4 11 -10z m65 0 c0 -5 -5 -10 -11 -10 -5 0 -7 5 -4 10 3 6 8 10 11 10 2 0 4
-4 4 -10z m62 -13 c-7 -8 -8 -18 -4 -23 4 -4 -1 -2 -10 5 -15 11 -21 11 -33 1
-9 -7 -15 -8 -15 -2 0 12 29 24 41 16 5 -3 12 2 15 11 4 9 9 14 12 11 3 -3 0
-12 -6 -19z m142 11 c5 -10 7 -10 12 0 3 6 10 12 15 12 5 0 2 -11 -7 -25 -15
-23 -29 -26 -29 -7 0 4 -4 13 -8 20 -5 6 -4 12 2 12 5 0 12 -6 15 -12z m101 3
c3 -5 1 -12 -5 -16 -6 -4 -7 -12 -4 -18 4 -7 3 -9 -1 -4 -13 11 -17 47 -6 47
6 0 12 -4 16 -9z m-2449 -23 c-3 -13 -5 -24 -5 -26 -1 -2 -6 0 -11 3 -8 5 -7
11 1 21 16 20 0 17 -25 -3 -21 -18 -21 -18 -2 5 11 12 25 22 32 22 9 0 12 -8
10 -22z m231 -8 c-12 -17 -15 -18 -20 -5 -4 8 -11 15 -17 15 -6 0 -8 -4 -5
-10 4 -6 -1 -7 -11 -3 -10 4 -15 2 -11 -4 3 -5 0 -10 -8 -10 -8 0 -15 3 -15 7
0 12 48 29 69 25 12 -2 21 1 21 7 0 6 3 9 6 5 3 -3 -1 -15 -9 -27z m131 5 c-3
-3 -9 2 -12 12 -6 14 -5 15 5 6 7 -7 10 -15 7 -18z m1118 0 c0 -14 -4 -25 -8
-25 -6 0 -5 25 1 48 3 10 7 -2 7 -23z m839 14 c11 -16 1 -19 -13 -3 -7 8 -8
14 -3 14 5 0 13 -5 16 -11z m-2391 -15 c3 -8 2 -12 -4 -9 -6 3 -10 10 -10 16
0 14 7 11 14 -7z m385 -10 c-14 -13 -16 -13 -16 0 0 8 4 13 9 10 4 -3 8 0 8 7
0 7 3 9 7 5 4 -3 0 -13 -8 -22z m271 16 c0 -5 -2 -10 -4 -10 -3 0 -8 5 -11 10
-3 6 -1 10 4 10 6 0 11 -4 11 -10z m67 -9 c0 -11 -5 -18 -9 -15 -4 3 -5 11 -1
19 7 21 12 19 10 -4z m93 9 c0 -5 -2 -10 -4 -10 -3 0 -8 5 -11 10 -3 6 -1 10
4 10 6 0 11 -4 11 -10z m80 6 c0 -3 -4 -8 -10 -11 -5 -3 -10 -1 -10 4 0 6 5
11 10 11 6 0 10 -2 10 -4z m517 -15 c0 -11 -4 -18 -8 -15 -4 2 -10 1 -13 -4
-8 -13 -69 -7 -74 6 -4 14 7 15 28 2 11 -7 17 -5 22 8 6 15 7 15 7 -2 1 -15 4
-16 16 -6 8 7 12 16 9 21 -3 5 -1 9 5 9 5 0 9 -9 8 -19z m108 -1 c-1 -11 -5
-23 -10 -27 -4 -5 -5 -2 -1 5 5 7 1 12 -10 12 -16 0 -16 1 2 15 10 8 19 15 20
15 0 0 0 -9 -1 -20z m280 10 c-3 -5 -1 -10 5 -10 6 0 8 -4 5 -10 -4 -6 -11 -5
-19 3 -10 9 -11 14 -2 19 15 10 18 10 11 -2z m-1388 -22 c-3 -8 -6 -5 -6 6 -1
11 2 17 5 13 3 -3 4 -12 1 -19z m500 7 c0 -8 -4 -12 -9 -9 -5 3 -6 10 -3 15 9
13 12 11 12 -6z m71 3 c9 -9 12 -9 12 3 0 11 2 12 9 0 6 -9 11 -10 15 -2 4 6
13 11 19 11 7 0 4 -5 -5 -11 -10 -5 -19 -8 -21 -7 -2 2 -11 -3 -20 -11 -16
-12 -18 -12 -16 5 0 4 -5 11 -13 15 -7 5 -8 9 -2 9 5 0 15 -5 22 -12z m136 -4
c3 -8 2 -12 -4 -9 -6 3 -10 10 -10 16 0 14 7 11 14 -7z m96 -10 c-12 -14 -40
-8 -40 8 0 6 8 4 17 -3 15 -12 16 -12 10 3 -4 12 -2 15 9 11 11 -4 12 -9 4
-19z m433 11 c-3 -9 -8 -14 -10 -11 -3 3 -2 9 2 15 9 16 15 13 8 -4z m114 -7
c-3 -8 -6 -5 -6 6 -1 11 2 17 5 13 3 -3 4 -12 1 -19z m-817 8 c0 -3 -4 -8 -10
-11 -5 -3 -10 -1 -10 4 0 6 5 11 10 11 6 0 10 -2 10 -4z m150 -6 c0 -5 -2 -10
-4 -10 -3 0 -8 5 -11 10 -3 6 -1 10 4 10 6 0 11 -4 11 -10z m70 2 c0 -5 -7 -9
-15 -9 -8 0 -12 4 -9 9 3 4 9 8 15 8 5 0 9 -4 9 -8z m90 -1 c0 -6 -4 -13 -10
-16 -5 -3 -10 1 -10 9 0 9 5 16 10 16 6 0 10 -4 10 -9z m191 -4 c-1 -12 -15
-9 -19 4 -3 6 1 10 8 8 6 -3 11 -8 11 -12z m179 9 c0 -3 -4 -8 -10 -11 -5 -3
-10 -1 -10 4 0 6 5 11 10 11 6 0 10 -2 10 -4z"/>
<path d="M8095 1661 c-3 -5 -2 -12 3 -15 5 -3 9 1 9 9 0 17 -3 19 -12 6z"/>
<path d="M8133 1645 c-3 -9 -3 -18 -1 -21 3 -3 8 4 11 16 6 23 -1 27 -10 5z"/>
<path d="M3396 1638 c3 -5 10 -6 15 -3 13 9 11 12 -6 12 -8 0 -12 -4 -9 -9z"/>
<path d="M3553 1635 c0 -8 4 -12 9 -9 5 3 6 10 3 15 -9 13 -12 11 -12 -6z"/>
<path d="M3735 1640 c-3 -5 -1 -10 4 -10 6 0 11 5 11 10 0 6 -2 10 -4 10 -3 0
-8 -4 -11 -10z"/>
<path d="M3800 1635 c-19 -22 -8 -25 13 -3 9 10 13 18 8 18 -5 0 -14 -7 -21
-15z"/>
<path d="M3885 1639 c-4 -6 -5 -12 -2 -15 2 -3 7 2 10 11 7 17 1 20 -8 4z"/>
<path d="M3920 1633 c10 -21 -2 -35 -13 -15 -2 4 -2 1 -1 -5 5 -19 -10 -16
-36 7 -13 11 -25 20 -28 20 -3 0 3 -9 13 -20 21 -24 9 -27 -16 -4 -16 14 -18
14 -31 -10 -7 -14 -17 -25 -23 -25 -5 0 -10 -4 -11 -10 -2 -7 -1 -8 3 -1 2 5
9 8 14 4 5 -3 14 6 20 20 12 26 33 27 23 1 -5 -11 3 -13 35 -10 37 3 39 2 28
-15 -9 -15 -9 -22 0 -31 9 -9 11 -7 7 8 -7 24 7 36 30 27 12 -5 13 -10 5 -25
-5 -10 -7 -19 -5 -19 3 0 10 9 16 20 9 16 6 22 -17 35 -23 13 -24 15 -5 10 27
-8 28 2 1 35 -18 23 -19 23 -9 3z"/>
<path d="M8200 1635 c-7 -9 -8 -15 -2 -15 5 0 12 7 16 15 3 8 4 15 2 15 -2 0
-9 -7 -16 -15z"/>
<path d="M8376 1633 c-6 -14 -5 -15 5 -6 7 7 10 15 7 18 -3 3 -9 -2 -12 -12z"/>
<path d="M8570 1646 c0 -2 7 -7 16 -10 8 -3 12 -2 9 4 -6 10 -25 14 -25 6z"/>
<path d="M8086 1626 c4 -9 3 -16 -2 -15 -23 4 -32 -3 -30 -25 0 -15 6 -22 15
-18 7 3 17 -1 23 -9 8 -11 9 -10 4 3 -3 10 -1 20 4 23 6 4 10 1 10 -6 0 -7 3
-9 7 -6 3 4 12 -1 20 -11 13 -15 13 -15 4 4 -8 17 -7 25 4 34 9 7 19 10 22 6
4 -4 1 -11 -7 -16 -12 -7 -12 -12 3 -28 9 -10 15 -22 12 -25 -3 -4 -2 -5 2 -2
9 7 13 35 5 32 -4 -1 -8 3 -9 8 -2 6 4 10 11 10 8 0 18 4 22 8 14 14 26 7 14
-8 -7 -8 -9 -15 -6 -15 8 0 36 26 36 32 0 8 -40 6 -45 -3 -3 -5 -16 0 -28 11
-18 17 -22 18 -29 6 -5 -9 -15 -13 -23 -10 -8 4 -12 11 -8 18 3 6 3 8 -2 4 -4
-4 -14 -3 -22 4 -11 8 -12 7 -7 -6z m42 -31 c4 -5 0 -6 -9 -2 -9 3 -21 1 -27
-5 -12 -12 -35 -1 -27 12 6 10 53 6 63 -5z"/>
<path d="M8275 1630 c6 -10 4 -12 -11 -6 -15 6 -17 5 -6 -5 9 -9 15 -10 23 -2
8 8 7 13 -2 18 -8 6 -10 4 -4 -5z"/>
<path d="M3621 1598 c-13 -21 -13 -22 1 -10 11 8 17 9 20 2 1 -5 9 0 17 12 13
21 13 22 -1 10 -11 -8 -17 -9 -20 -2 -1 5 -9 0 -17 -12z"/>
<path d="M3694 1599 c0 -13 3 -15 13 -7 7 6 13 12 13 13 0 2 -6 5 -13 8 -7 3
-13 -3 -13 -14z"/>
<path d="M8337 1601 c-4 -17 -3 -21 5 -13 5 5 8 16 6 23 -3 8 -7 3 -11 -10z"/>
<path d="M8399 1615 c-1 -3 -2 -13 -3 -22 -1 -10 -5 -25 -10 -33 -7 -12 -6
-13 5 -2 11 11 22 62 12 62 -1 0 -4 -2 -4 -5z"/>
<path d="M3760 1599 c0 -5 5 -7 10 -4 6 3 10 8 10 11 0 2 -4 4 -10 4 -5 0 -10
-5 -10 -11z"/>
<path d="M8290 1598 c0 -11 12 -10 30 2 12 7 10 9 -8 7 -12 0 -22 -5 -22 -9z"/>
<path d="M3666 1583 c-6 -14 -5 -15 5 -6 7 7 10 15 7 18 -3 3 -9 -2 -12 -12z"/>
<path d="M3413 1569 c-2 -23 3 -25 10 -4 4 8 3 16 -1 19 -4 3 -9 -4 -9 -15z"/>
<path d="M3455 1580 c-3 -5 -1 -10 4 -10 6 0 11 5 11 10 0 6 -2 10 -4 10 -3 0
-8 -4 -11 -10z"/>
<path d="M3716 1575 c-3 -9 -11 -13 -17 -9 -8 5 -9 3 -4 -5 6 -10 11 -9 23 3
9 8 13 18 10 21 -3 3 -8 -1 -12 -10z"/>
<path d="M8255 1581 c-3 -5 0 -13 6 -17 7 -4 9 -3 5 4 -3 5 0 13 6 15 9 4 10
6 1 6 -6 1 -14 -3 -18 -8z"/>
<path d="M8360 1580 c-9 -6 -10 -10 -3 -10 6 0 15 5 18 10 8 12 4 12 -15 0z"/>
<path d="M8430 1579 c0 -5 5 -7 10 -4 6 3 10 8 10 11 0 2 -4 4 -10 4 -5 0 -10
-5 -10 -11z"/>
<path d="M3193 1555 c0 -8 4 -12 9 -9 4 3 8 9 8 15 0 5 -4 9 -8 9 -5 0 -9 -7
-9 -15z"/>
<path d="M3850 1566 c0 -2 7 -7 16 -10 8 -3 12 -2 9 4 -6 10 -25 14 -25 6z"/>
<path d="M8020 1561 c0 -9 30 -24 36 -18 2 1 -6 8 -16 15 -11 7 -20 8 -20 3z"/>
<path d="M4100 1538 c-10 -21 -10 -22 3 -5 11 14 16 15 20 5 4 -9 6 -9 6 -1 2
23 -18 23 -29 1z"/>
<path d="M4147 1542 c3 -7 8 -10 11 -7 3 3 13 -2 23 -11 13 -12 19 -12 25 -3
4 7 3 10 -3 6 -11 -7 -37 16 -28 24 2 3 -4 5 -14 5 -12 0 -17 -5 -14 -14z"/>
<path d="M7550 1560 c-9 -42 -9 -54 0 -40 9 13 11 13 20 0 5 -8 10 -10 10 -4
0 11 -29 53 -30 44z"/>
<path d="M7590 1548 c0 -7 10 -19 23 -27 21 -13 21 -13 7 4 -8 10 -14 21 -12
24 2 3 -1 7 -7 9 -6 2 -11 -2 -11 -10z"/>
<path d="M7771 1544 c0 -11 3 -14 6 -6 3 7 2 16 -1 19 -3 4 -6 -2 -5 -13z"/>
<path d="M7800 1550 c-8 -5 -11 -13 -6 -17 5 -4 11 -2 13 5 3 6 10 9 15 6 7
-4 8 -2 4 4 -9 14 -7 14 -26 2z"/>
<path d="M8110 1550 c0 -5 5 -10 11 -10 5 0 7 5 4 10 -3 6 -8 10 -11 10 -2 0
-4 -4 -4 -10z"/>
<path d="M4390 1540 c0 -5 5 -10 10 -10 6 0 10 5 10 10 0 6 -4 10 -10 10 -5 0
-10 -4 -10 -10z"/>
<path d="M4740 1535 c-7 -8 -16 -13 -20 -10 -5 3 -11 1 -15 -4 -3 -6 3 -8 15
-6 11 2 20 -2 20 -8 0 -7 5 -4 11 5 9 16 12 16 33 3 20 -13 23 -13 23 0 0 8
-3 13 -5 10 -3 -3 -15 2 -28 10 -19 12 -24 12 -34 0z"/>
<path d="M4255 1520 c3 -5 8 -10 11 -10 2 0 4 5 4 10 0 6 -5 10 -11 10 -5 0
-7 -4 -4 -10z"/>
<path d="M4845 1520 c-3 -5 -1 -10 5 -10 6 0 8 -5 4 -12 -4 -7 -3 -8 4 -4 6 4
9 13 5 21 -6 18 -10 19 -18 5z"/>
<path d="M7016 1514 c-4 -9 -4 -19 -1 -22 2 -3 7 3 11 12 4 9 4 19 1 22 -2 3
-7 -3 -11 -12z"/>
<path d="M7735 1520 c-3 -6 1 -7 9 -4 18 7 21 14 7 14 -6 0 -13 -4 -16 -10z"/>
<path d="M7996 1513 c-6 -14 -5 -15 5 -6 7 7 10 15 7 18 -3 3 -9 -2 -12 -12z"/>
<path d="M5667 1503 c4 -11 8 -12 13 -3 6 9 9 9 13 1 4 -8 5 -8 3 0 -1 7 -9
13 -18 15 -11 1 -15 -3 -11 -13z"/>
</g>
</svg>
